<?xml version="1.0" encoding="utf-8"?>
<!-- Generator: Adobe Illustrator 18.1.1, SVG Export Plug-In . SVG Version: 6.00 Build 0)  -->
<svg version="1.1" id="Layer_1" xmlns="http://www.w3.org/2000/svg" xmlns:xlink="http://www.w3.org/1999/xlink" x="0px" y="0px"
	 viewBox="0 0 57.4 57.4" enable-background="new 0 0 57.4 57.4" xml:space="preserve">
<circle fill="#FFFFFF" stroke="#00A651" stroke-width="1.4" stroke-linejoin="round" stroke-miterlimit="10" cx="28.7" cy="28.7" r="28"/>
<path fill="#FFFFFF" stroke="#000000" stroke-width="1.4" stroke-linecap="round" stroke-linejoin="round" stroke-miterlimit="10" d="
	M44.4,14.8c-4-4-9.5-6.4-15.6-6.4c-6.1,0-11.6,2.5-15.6,6.4"/>
<path fill="#FFFFFF" stroke="#000000" stroke-width="1.4" stroke-linecap="round" stroke-linejoin="round" stroke-miterlimit="10" d="
	M39.8,18.6c-2.9-2.7-6.8-4.3-11-4.3c-4.2,0-8.1,1.6-11,4.3"/>
<path fill="#FFFFFF" stroke="#000000" stroke-width="1.4" stroke-linecap="round" stroke-linejoin="round" stroke-miterlimit="10" d="
	M22.8,22.7c1.5-1.5,3.7-2.5,6-2.5c2.3,0,4.5,0.9,6,2.5"/>
<path fill="#FFFFFF" stroke="#000000" stroke-width="1.4" stroke-linejoin="round" stroke-miterlimit="10" d="M44,40.6
	c0-4.5-3.6-8.1-8.1-8.1H20.3c-4.5,0-8.1,3.6-8.1,8.1H44z"/>
<line fill="#FFFFFF" stroke="#000000" stroke-width="1.4" stroke-linecap="round" stroke-linejoin="round" stroke-miterlimit="10" x1="28.7" y1="25.9" x2="22.6" y2="32.2"/>
<line fill="#FFFFFF" stroke="#000000" stroke-width="1.4" stroke-linecap="round" stroke-linejoin="round" stroke-miterlimit="10" x1="18.4" y1="37.2" x2="24.5" y2="37.2"/>
<line fill="#FFFFFF" stroke="#000000" stroke-width="1.4" stroke-linecap="round" stroke-linejoin="round" stroke-miterlimit="10" x1="37.3" y1="37.2" x2="37.3" y2="37.2"/>
<line fill="#FFFFFF" stroke="#000000" stroke-width="1.4" stroke-linecap="round" stroke-linejoin="round" stroke-miterlimit="10" x1="34.9" y1="37.2" x2="34.9" y2="37.2"/>
<line fill="#FFFFFF" stroke="#000000" stroke-width="1.4" stroke-linecap="round" stroke-linejoin="round" stroke-miterlimit="10" x1="32.5" y1="37.2" x2="32.5" y2="37.2"/>
</svg>
