<?xml version="1.0" encoding="utf-8"?>
<!-- Generator: Adobe Illustrator 18.1.1, SVG Export Plug-In . SVG Version: 6.00 Build 0)  -->
<svg version="1.1" id="Layer_1" xmlns="http://www.w3.org/2000/svg" xmlns:xlink="http://www.w3.org/1999/xlink" x="0px" y="0px"
	 viewBox="0 0 57.4 57.4" enable-background="new 0 0 57.4 57.4" xml:space="preserve">
<circle fill="#FFFFFF" stroke="#00A651" stroke-width="1.4" stroke-linejoin="round" stroke-miterlimit="10" cx="28.7" cy="28.7" r="28"/>
<g>
	<path fill="#FFFFFF" stroke="#000000" stroke-width="1.4" stroke-linejoin="round" stroke-miterlimit="10" d="M27.1,16.7
		c0,4.4,0.8,8.2,2.1,10.8c1.5-2.5,2.3-6.7,2.3-11.6c0-4.4-1.9-12.1-1.9-12.1S27.1,11.9,27.1,16.7z"/>
	<path fill="#FFFFFF" stroke="#000000" stroke-width="1.4" stroke-linejoin="round" stroke-miterlimit="10" d="M29.8,24.6
		c-5.1-3.2-5.1-14.9-5.1-14.9s-1.6,3.6-1.9,6.8c-0.7,6.4,1.3,6.9,3.6,9.2C28.8,28.2,31.7,25.8,29.8,24.6z"/>
	<path fill="#FFFFFF" stroke="#000000" stroke-width="1.4" stroke-linejoin="round" stroke-miterlimit="10" d="M31.8,19.2
		c-0.6,3.2-0.4,6.1,0.3,8.1c1.6-1.6,2.9-4.6,3.6-8.1c0.6-3.2-0.3-8.2-0.3-8.2S32.4,15.6,31.8,19.2z"/>
	<polygon fill="#FFFFFF" stroke="#000000" stroke-width="1.4" stroke-linejoin="round" stroke-miterlimit="10" points="33.8,23.2 
		36.8,32.4 29.3,38.2 21.4,32.4 24.4,23.2 	"/>
	<polygon fill="none" stroke="#000000" stroke-width="1.4" stroke-linejoin="round" stroke-miterlimit="10" points="29.3,47.2 
		29.3,38.2 36.8,32.4 44.5,38.2 39.4,47.2 	"/>
	<polygon fill="none" stroke="#000000" stroke-width="1.4" stroke-linejoin="round" stroke-miterlimit="10" points="19.8,47.2 
		13.8,38.2 21.4,32.4 29.3,38.2 29.3,47.2 	"/>
	<polygon fill="#FFFFFF" stroke="#000000" stroke-width="1.4" stroke-linejoin="round" stroke-miterlimit="10" points="20.2,23.2 
		12.7,30.9 13.8,38.2 21.4,32.4 24.4,23.2 	"/>
	<polygon fill="#FFFFFF" stroke="#000000" stroke-width="1.4" stroke-linejoin="round" stroke-miterlimit="10" points="38.1,23.2 
		45.7,30.7 44.5,38.2 36.8,32.4 33.8,23.2 	"/>
</g>
</svg>
