<?xml version="1.0" encoding="utf-8"?>
<!-- Generator: Adobe Illustrator 18.1.1, SVG Export Plug-In . SVG Version: 6.00 Build 0)  -->
<svg version="1.1" id="Layer_1" xmlns="http://www.w3.org/2000/svg" xmlns:xlink="http://www.w3.org/1999/xlink" x="0px" y="0px"
	 viewBox="0 0 57.4 57.4" enable-background="new 0 0 57.4 57.4" xml:space="preserve">
<circle fill="#FFFFFF" stroke="#00A651" stroke-width="1.4" stroke-linejoin="round" stroke-miterlimit="10" cx="28.7" cy="28.7" r="28"/>
<path fill="none" stroke="#000000" stroke-width="1.4" stroke-linecap="round" stroke-linejoin="round" stroke-miterlimit="10" d="
	M18.9,40.3c-6,0-10.5,0-10.5,0V22.4H49v17.8c0,0-4.9,0-10.5,0"/>
<line fill="none" stroke="#000000" stroke-width="1.4" stroke-linecap="round" stroke-linejoin="round" stroke-miterlimit="10" x1="8.4" y1="35.5" x2="49" y2="35.5"/>
<rect x="18.9" y="35.5" fill="#FFFFFF" stroke="#000000" stroke-width="1.4" stroke-linecap="round" stroke-linejoin="round" stroke-miterlimit="10" width="19.8" height="10"/>
<line fill="#FFFFFF" stroke="#000000" stroke-width="1.4" stroke-linecap="round" stroke-linejoin="round" stroke-miterlimit="10" x1="21.8" y1="39" x2="34.2" y2="39"/>
<line fill="#FFFFFF" stroke="#000000" stroke-width="1.4" stroke-linecap="round" stroke-linejoin="round" stroke-miterlimit="10" x1="11.8" y1="26.5" x2="17.8" y2="26.5"/>
<line fill="#FFFFFF" stroke="#000000" stroke-width="1.4" stroke-linecap="round" stroke-linejoin="round" stroke-miterlimit="10" x1="43.7" y1="26.5" x2="43.7" y2="26.5"/>
<line fill="#FFFFFF" stroke="#000000" stroke-width="1.4" stroke-linecap="round" stroke-linejoin="round" stroke-miterlimit="10" x1="41.3" y1="26.5" x2="41.3" y2="26.5"/>
<line fill="#FFFFFF" stroke="#000000" stroke-width="1.4" stroke-linecap="round" stroke-linejoin="round" stroke-miterlimit="10" x1="38.8" y1="26.5" x2="38.8" y2="26.5"/>
<path fill="none" stroke="#000000" stroke-width="1.4" stroke-linecap="round" stroke-linejoin="round" stroke-miterlimit="10" d="
	M14.1,22.5c0-1.3,0-2.2,0-2.2c0-1.9,1.5-3.4,3.4-3.4H40c1.9,0,3.4,1.5,3.4,3.4c0,0,0,0.9,0,2.1"/>
<rect x="18.1" y="9.2" fill="#FFFFFF" stroke="#000000" stroke-width="1.4" stroke-linecap="round" stroke-linejoin="round" stroke-miterlimit="10" width="20.6" height="13.3"/>
</svg>
