<?xml version="1.0" encoding="utf-8"?>
<!-- Generator: Adobe Illustrator 18.1.1, SVG Export Plug-In . SVG Version: 6.00 Build 0)  -->
<svg version="1.1" id="Layer_1" xmlns="http://www.w3.org/2000/svg" xmlns:xlink="http://www.w3.org/1999/xlink" x="0px" y="0px"
	 viewBox="0 0 15.2 15.2" enable-background="new 0 0 15.2 15.2" xml:space="preserve">
<g>
	<defs>
		<rect id="SVGID_1_" x="0" y="0" width="15.2" height="15.2"/>
	</defs>
	<clipPath id="SVGID_2_">
		<use xlink:href="#SVGID_1_"  overflow="visible"/>
	</clipPath>
	<path clip-path="url(#SVGID_2_)" fill="#41AD49" d="M7.6,15.2c4.2,0,7.6-3.4,7.6-7.6c0-4.2-3.4-7.6-7.6-7.6S0,3.4,0,7.6
		C0,11.8,3.4,15.2,7.6,15.2"/>
	<path clip-path="url(#SVGID_2_)" fill="#FFFFFF" d="M7.8,9.3c0-0.9,0.6-1.6,1.5-1.6c1,0,1.5,0.7,1.5,1.6s-0.5,1.6-1.5,1.6
		C8.4,10.9,7.8,10.1,7.8,9.3 M6.9,11.7h0.9l0.1-0.4L8,11.2L8,11.3c0.3,0.3,0.8,0.5,1.3,0.5c1.3,0,2.5-1,2.5-2.5s-1.1-2.5-2.5-2.5
		c-0.5,0-1,0.2-1.3,0.5L8,7.3L7.9,7.3V3.8h-1V11.7z M3.3,7.8h0.8v3.9h1V7.8h1V6.8h-1V5.3c0-0.3,0.2-0.5,0.5-0.5l0.6,0.1V3.9L5.6,3.8
		c-1,0-1.6,0.6-1.6,1.6v1.4H3.3V7.8z"/>
</g>
</svg>
