<?xml version="1.0" encoding="utf-8"?>
<!-- Generator: Adobe Illustrator 18.1.1, SVG Export Plug-In . SVG Version: 6.00 Build 0)  -->
<svg version="1.1" id="Layer_1" xmlns="http://www.w3.org/2000/svg" xmlns:xlink="http://www.w3.org/1999/xlink" x="0px" y="0px"
	 viewBox="0 0 57.4 57.4" enable-background="new 0 0 57.4 57.4" xml:space="preserve">
<circle fill="#FFFFFF" stroke="#00A651" stroke-width="1.4" stroke-linejoin="round" stroke-miterlimit="10" cx="28.7" cy="28.7" r="28"/>
<g>
	<g>
		<path fill="#010101" stroke="#000000" stroke-width="0.1" stroke-miterlimit="10" d="M31.4,22.2c0,0.9-0.6,1.8-1.4,2.1
			c-0.9,0.4-1.9,0.1-2.5-0.6c-0.6-0.7-0.7-1.7-0.3-2.5c0.4-0.9,1.4-1.3,2.3-1.2C30.6,20.1,31.4,21.1,31.4,22.2c0,0.6,1,0.6,1,0
			c0-1.1-0.6-2.1-1.5-2.7c-1-0.6-2.2-0.6-3.2-0.1c-1,0.5-1.6,1.5-1.7,2.6c-0.1,1.1,0.4,2.2,1.3,2.9c1,0.7,2.3,0.8,3.4,0.3
			c1.1-0.5,1.7-1.7,1.7-2.9C32.4,21.6,31.4,21.6,31.4,22.2z"/>
	</g>
</g>
<g>
	<g>
		<path fill="#010101" stroke="#000000" stroke-width="0.3" stroke-miterlimit="10" d="M25.5,24.5c-0.7,0.5-1.2,1.1-1.5,1.8
			c-0.2,0.5-0.3,1.1-0.3,1.6c0,0.5,0,0.9,0,1.4c0,0.4,0,0.8,0.1,1.2c0.1,0.2,0.3,0.4,0.6,0.3c0.2-0.1,0.4-0.3,0.3-0.6
			c-0.1-0.3-0.1-0.6-0.1-0.9c0-0.4,0-0.9,0-1.3c0-0.4,0-0.8,0.1-1.2c0.2-0.6,0.6-1.2,1.2-1.5C26.5,25,26,24.1,25.5,24.5L25.5,24.5z"
			/>
	</g>
</g>
<g>
	<g>
		<path fill="#010101" stroke="#000000" stroke-width="0.3" stroke-miterlimit="10" d="M34.5,30.5c0.1-0.4,0.1-0.8,0.1-1.2
			c0-0.5,0-0.9,0-1.4c0-0.5-0.1-1.1-0.3-1.6c-0.3-0.8-0.8-1.4-1.5-1.9c-0.5-0.3-1,0.5-0.5,0.8c0.5,0.3,0.9,0.8,1.2,1.4
			c0.2,0.4,0.2,0.8,0.2,1.3c0,0.4,0,0.9,0,1.3c0,0.3,0.1,0.7-0.1,0.9c-0.1,0.2,0.1,0.5,0.3,0.6C34.2,30.9,34.4,30.8,34.5,30.5
			L34.5,30.5z"/>
	</g>
</g>
<g>
	<g>
		<path fill="#010101" stroke="#000000" stroke-width="0.3" stroke-miterlimit="10" d="M45.5,43.1c-1,0-2,0-3,0c-2.4,0-4.8,0-7.2,0
			c-3,0-6,0-9,0c-2.7,0-5.5,0-8.2,0c-1.6,0-3.2,0-4.9,0c-0.1,0-0.3,0-0.4,0c0.1,0.2,0.3,0.5,0.4,0.7c1-1.8,1.9-3.5,2.9-5.3
			c1-1.9,2.1-3.8,3.1-5.7c0.4-0.7,0.7-1.3,1.1-2c-0.1,0.1-0.3,0.2-0.4,0.2c1.6,0,3.1,0,4.7,0c2.9,0,5.9,0,8.8,0c1.7,0,3.4,0,5,0
			c0,0,0,0,0,0c-0.1-0.1-0.3-0.2-0.4-0.2c1,1.9,2,3.7,3.1,5.6c1,1.7,1.9,3.5,2.9,5.2c0.4,0.7,0.8,1.4,1.1,2.1
			c0.3,0.5,1.1,0.1,0.8-0.5C45,41.6,44,39.8,43,38c-1-1.9-2.1-3.8-3.1-5.7c-0.4-0.7-0.7-1.3-1.1-2c-0.1-0.1-0.2-0.2-0.4-0.2
			c-1.6,0-3.1,0-4.7,0c-2.9,0-5.9,0-8.8,0c-1.7,0-3.4,0-5,0c0,0,0,0,0,0c-0.2,0-0.3,0.1-0.4,0.2c-1,1.9-2,3.7-3.1,5.6
			c-1,1.7-1.9,3.5-2.9,5.2c-0.4,0.7-0.8,1.4-1.1,2.1c-0.2,0.3,0,0.7,0.4,0.7c1,0,2,0,3,0c2.4,0,4.8,0,7.3,0c3,0,6,0,9,0
			c2.7,0,5.5,0,8.2,0c1.6,0,3.2,0,4.9,0c0.1,0,0.3,0,0.4,0C46.1,44,46.1,43.1,45.5,43.1z"/>
	</g>
</g>
<g>
	<g>
		<path fill="#010101" stroke="#000000" stroke-width="0.3" stroke-miterlimit="10" d="M46.3,28.9c0,1-0.5,1.8-1.4,2.2
			c-0.8,0.4-1.9,0.2-2.6-0.3c-0.7-0.6-1-1.6-0.8-2.5c0.2-0.9,1-1.5,1.9-1.7C44.9,26.3,46.2,27.5,46.3,28.9c0,0.6,1,0.6,1,0
			c0-1.1-0.6-2.1-1.5-2.8c-0.9-0.6-2.1-0.8-3.1-0.4c-1,0.4-1.8,1.3-2.1,2.3c-0.3,1.1,0,2.2,0.8,3.1c0.9,1,2.4,1.4,3.7,0.9
			c1.3-0.5,2.1-1.8,2.2-3.1C47.2,28.3,46.3,28.3,46.3,28.9z"/>
	</g>
</g>
<g>
	<g>
		<path fill="#010101" stroke="#000000" stroke-width="0.3" stroke-miterlimit="10" d="M47.2,32.2c0.9,0.6,1.4,1.5,1.4,2.6
			c0,0.6,0,1.1,0,1.7c0,0.2,0,0.5,0,0.7c0,0.4-0.2,0.6-0.6,0.7c-0.1,0-0.2,0-0.3,0c-0.2,0-0.5,0-0.7,0c-1.4,0-2.9,0-4.3,0
			c-0.6,0-0.6,1,0,1c1.1,0,2.2,0,3.2,0c0.6,0,1.2,0,1.8,0c0.1,0,0.2,0,0.3,0c0.6,0,1.2-0.3,1.4-0.9c0.2-0.4,0.2-0.9,0.2-1.3
			c0-0.5,0-1,0-1.5c0-0.6-0.1-1.2-0.3-1.7c-0.3-0.8-0.9-1.5-1.6-2C47.1,31,46.6,31.8,47.2,32.2L47.2,32.2z"/>
	</g>
</g>
<g>
	<g>
		<path fill="#010101" stroke="#000000" stroke-width="0.3" stroke-miterlimit="10" d="M16.9,28.9c0,1-0.6,1.8-1.4,2.2
			c-0.8,0.4-1.9,0.2-2.6-0.3c-0.7-0.6-1-1.6-0.8-2.5c0.2-0.9,1-1.5,1.9-1.7C15.5,26.3,16.9,27.5,16.9,28.9c0,0.6,1,0.6,1,0
			c0-1.1-0.6-2.1-1.5-2.8c-0.9-0.6-2.1-0.8-3.1-0.4c-1,0.4-1.8,1.3-2.1,2.3c-0.3,1.1,0,2.2,0.8,3.1c0.9,1,2.4,1.4,3.7,0.9
			c1.3-0.5,2.1-1.8,2.2-3.1C17.8,28.3,16.9,28.3,16.9,28.9z"/>
	</g>
</g>
<g>
	<g>
		<path fill="#010101" stroke="#000000" stroke-width="0.3" stroke-miterlimit="10" d="M10.6,31.4c-1,0.7-1.7,1.7-1.8,2.9
			c-0.1,0.6,0,1.2,0,1.8c0,0.6-0.1,1.4,0.3,2c0.3,0.4,0.8,0.7,1.3,0.7c0.1,0,0.3,0,0.4,0c1.6,0,3.3,0,4.9,0c0.6,0,0.6-1,0-1
			c-1.1,0-2.2,0-3.2,0c-0.6,0-1.2,0-1.8,0c-0.1,0-0.2,0-0.3,0c-0.4,0-0.6-0.3-0.6-0.6c0-0.7,0-1.5,0-2.2c0-0.4,0-0.9,0.2-1.3
			c0.2-0.6,0.7-1.1,1.2-1.5C11.6,31.9,11.2,31,10.6,31.4L10.6,31.4z"/>
	</g>
</g>
<g>
	<g>
		<path fill="#010101" stroke="#000000" stroke-width="0.3" stroke-miterlimit="10" d="M17.8,22.6c0-2.2,0-4.3,0-6.5
			c0-1.3,0-2.6,0-3.9c-0.2,0.2-0.3,0.3-0.5,0.5c1.3,0,2.6,0,3.9,0c2.8,0,5.6,0,8.5,0c2.7,0,5.5,0,8.2,0c1.1,0,2.1,0,3.2,0
			c-0.2-0.2-0.3-0.3-0.5-0.5c0,2.2,0,4.3,0,6.5c0,1.3,0,2.6,0,3.9c0,0.6,1,0.6,1,0c0-2.2,0-4.3,0-6.5c0-1.3,0-2.6,0-3.9
			c0-0.3-0.2-0.5-0.5-0.5c-1.3,0-2.6,0-3.9,0c-2.8,0-5.6,0-8.5,0c-2.7,0-5.5,0-8.2,0c-1.1,0-2.1,0-3.2,0c-0.3,0-0.5,0.2-0.5,0.5
			c0,2.2,0,4.3,0,6.5c0,1.3,0,2.6,0,3.9C16.8,23.2,17.8,23.2,17.8,22.6L17.8,22.6z"/>
	</g>
</g>
</svg>
