<?xml version="1.0" encoding="utf-8"?>
<!-- Generator: Adobe Illustrator 18.1.1, SVG Export Plug-In . SVG Version: 6.00 Build 0)  -->
<svg version="1.1" id="Layer_1" xmlns="http://www.w3.org/2000/svg" xmlns:xlink="http://www.w3.org/1999/xlink" x="0px" y="0px"
	 viewBox="0 0 57.4 57.4" enable-background="new 0 0 57.4 57.4" xml:space="preserve">
<circle fill="#FFFFFF" stroke="#00A651" stroke-width="1.4" stroke-linejoin="round" stroke-miterlimit="10" cx="28.7" cy="28.7" r="28"/>
<g>
	<g>
		<path fill="#010101" stroke="#FFFFFF" stroke-width="0.5" stroke-miterlimit="10" d="M42.8,24.5c-0.9-1-2.2-1.7-3.5-1.9
			c0-0.7,0-1.3-0.1-1.9c-0.1-1.3-1.1-2.3-2.4-2.3h-19c-1.3,0-2.4,1-2.4,2.3c-0.2,5.7-0.2,19.7,4.2,26.2c0.7,1,1.9,1.6,3.1,1.6H32
			c1.3,0,2.4-0.6,3.1-1.6c0.7-1.1,1.4-2.5,1.9-3.9h0.4c2.9,0,5.5-2.2,5.8-5.1l1.1-8.9C44.4,27.4,43.9,25.7,42.8,24.5z M33.6,46
			c-0.4,0.5-1,0.8-1.6,0.8h-9.1c-0.7,0-1.3-0.3-1.6-0.8c-4.2-6.3-4-20.8-3.9-25.2c0-0.3,0.3-0.6,0.6-0.6h18.9c0.4,0,0.6,0.2,0.6,0.6
			C37.6,25.1,37.8,39.7,33.6,46z M42.4,28.8l-1.1,8.9c-0.2,2-1.9,3.4-3.8,3.5c1.5-5.4,1.8-12.1,1.9-16.8c0.8,0.2,1.6,0.6,2.1,1.3
			C42.2,26.6,42.6,27.6,42.4,28.8z"/>
		<path fill="#010101" stroke="#FFFFFF" stroke-width="0.5" stroke-miterlimit="10" d="M21.1,26.4c0-0.5-0.4-0.9-0.9-0.9l0,0
			c-0.5,0-0.9,0.4-0.9,0.9c0.1,5.5,0.6,12.9,2.6,17.3c0.2,0.4,0.5,0.5,0.8,0.5c0.1,0,0.2,0,0.4-0.1c0.5-0.2,0.7-0.7,0.4-1.2
			C21.5,38.7,21.2,30.8,21.1,26.4z"/>
		<path fill="#010101" stroke="#FFFFFF" stroke-width="0.5" stroke-miterlimit="10" d="M20.2,24.3L20.2,24.3c0.5,0,0.9-0.4,0.9-0.9
			c0-0.7,0-1,0-1c0-0.5-0.4-0.9-0.8-1c-0.5,0-0.9,0.4-1,0.8c0,0,0,0.4,0,1.1C19.3,23.9,19.7,24.3,20.2,24.3z"/>
	</g>
	<path fill="none" stroke="#000000" stroke-width="1.4" stroke-linecap="round" stroke-linejoin="round" stroke-miterlimit="10" d="
		M23.3,16.4c-1.3-1.7,0.4-3.2,2-3.6c1.5-0.3,3.1,0,4.6-0.3c1.2-0.2,2.1-1,2.6-2.1c0.4-1,0.4-2.6-0.8-3.1"/>
</g>
</svg>
