<?xml version="1.0" encoding="utf-8"?>
<!-- Generator: Adobe Illustrator 18.1.1, SVG Export Plug-In . SVG Version: 6.00 Build 0)  -->
<svg version="1.1" id="Layer_1" xmlns="http://www.w3.org/2000/svg" xmlns:xlink="http://www.w3.org/1999/xlink" x="0px" y="0px"
	 viewBox="0 0 57.4 57.4" enable-background="new 0 0 57.4 57.4" xml:space="preserve">
<circle fill="#FFFFFF" stroke="#00A651" stroke-width="1.4" stroke-linejoin="round" stroke-miterlimit="10" cx="28.7" cy="28.7" r="28"/>
<path fill="#FFFFFF" stroke="#000000" stroke-width="1.4" stroke-linejoin="round" stroke-miterlimit="10" d="M21.6,26.7
	c0-3,0-11.7,0-11.7c0-3.4,2.8-6.2,6.2-6.2h0.8c3.4,0,6.2,2.8,6.2,6.2c0,0,0,8.7,0,11.7"/>
<rect x="16.1" y="24.8" fill="#FFFFFF" stroke="#000000" stroke-width="1.4" stroke-linejoin="round" stroke-miterlimit="10" width="24" height="21.5"/>
<path fill="#FFFFFF" stroke="#000000" stroke-width="1.4" stroke-linejoin="round" stroke-miterlimit="10" d="M31,34
	c0-1.6-1.3-2.9-2.9-2.9c-1.6,0-2.9,1.3-2.9,2.9c0,1.2,0.8,2.2,1.8,2.7v5.5h2.1v-5.5C30.2,36.2,31,35.2,31,34z"/>
</svg>
