<?xml version="1.0" encoding="utf-8"?>
<!-- Generator: Adobe Illustrator 18.1.1, SVG Export Plug-In . SVG Version: 6.00 Build 0)  -->
<svg version="1.1" id="Layer_1" xmlns="http://www.w3.org/2000/svg" xmlns:xlink="http://www.w3.org/1999/xlink" x="0px" y="0px"
	 viewBox="0 0 91.6 46" enable-background="new 0 0 91.6 46" xml:space="preserve">
<g>
	<g>
		<g>
			<path fill="#1EB573" d="M91.6,46H0V0h91.6V46z M2,44h87.6V2H2V44z"/>
		</g>
	</g>
</g>
<g>
	<path fill="#1EB573" d="M29.6,19c-0.9,0-1.9,0.4-2.4,0.9L27.1,20L27,19.9l-0.2-0.7h-1.7v12.7H27v-4.7l0.1-0.1l0.1,0.1
		c0.6,0.6,1.5,0.9,2.4,0.9c2.4,0,4.5-1.9,4.5-4.6C34.1,20.9,32.1,19,29.6,19z M29.5,26.4c-1.6,0-2.7-1.3-2.7-2.9
		c0-1.6,1.1-2.9,2.7-2.9c1.8,0,2.7,1.3,2.7,2.9C32.2,25.1,31.3,26.4,29.5,26.4z M14.5,27.9h2V16h-2V27.9z M14.5,16h7.2v12h2V14.1
		h-9.1V16z M73.9,23.4l4.2-4.2h-2.4l-3.5,3.5v-3.5h-1.9v8.8h1.9v-3.7l3.7,3.7h2.4L73.9,23.4z M63.4,25.1v-6h-1.8v8.8h2.1l3.5-6v6H69
		v-8.8h-2.1L63.4,25.1z M41.7,19.9L41.7,19.9h-0.2C41,19.4,40.1,19,39.1,19c-2.4,0-4.5,1.9-4.5,4.6c0,2.7,2,4.6,4.5,4.6
		c0.9,0,1.9-0.4,2.4-0.9l0.1-0.1l0.1,0.1l0.2,0.7h1.7v-8.8h-1.7L41.7,19.9z M39.2,26.4c-1.8,0-2.7-1.3-2.7-2.9
		c0-1.6,0.9-2.9,2.7-2.9c1.6,0,2.7,1.3,2.7,2.9C41.9,25.1,40.8,26.4,39.2,26.4z M53.4,20.9h2.8v7.1H58v-7.1h2.8v-1.7h-7.4V20.9z
		 M52.9,19.2h-2.4l-3.5,3.5v-3.5h-1.9v8.8h1.9v-3.7l3.7,3.7h2.4l-4.4-4.5L52.9,19.2z"/>
</g>
</svg>
